<?xml version="1.0" standalone="no"?>
<!DOCTYPE svg PUBLIC "-//W3C//DTD SVG 20010904//EN"
 "http://www.w3.org/TR/2001/REC-SVG-20010904/DTD/svg10.dtd">
<svg version="1.0" xmlns="http://www.w3.org/2000/svg"
 width="384.000000pt" height="384.000000pt" viewBox="0 0 384.000000 384.000000"
 preserveAspectRatio="xMidYMid meet">
<metadata>
Created by potrace 1.14, written by Peter Selinger 2001-2017
</metadata>
<g transform="translate(0.000000,384.000000) scale(0.100000,-0.100000)"
fill="#000000" stroke="none">
<path d="M1750 3620 c-13 -8 -12 -10 3 -10 9 0 17 5 17 10 0 12 -1 12 -20 0z"/>
<path d="M1569 3600 c-42 -3 -82 -10 -90 -15 -8 -6 -32 -17 -54 -24 -40 -14
-70 -35 -168 -122 -29 -26 -72 -55 -97 -66 -41 -18 -153 -111 -255 -210 -22
-22 -60 -79 -85 -129 -26 -52 -65 -111 -94 -142 -28 -30 -51 -61 -51 -70 0
-10 -10 -18 -22 -20 -28 -4 -30 -18 -4 -25 14 -3 18 -13 16 -38 -1 -19 -5 -43
-10 -53 -6 -13 -3 -22 8 -31 13 -9 15 -19 8 -41 -8 -30 -6 -34 45 -113 22 -33
39 -143 51 -328 4 -69 9 -93 19 -93 8 0 15 1 17 1 1 1 24 -12 51 -30 28 -17
57 -31 67 -31 24 0 43 -27 54 -79 8 -35 15 -45 28 -43 10 2 17 -3 17 -13 0
-19 23 -19 60 0 26 14 30 21 30 60 0 25 6 50 15 58 17 18 45 135 55 234 4 43
14 82 26 100 10 15 17 32 16 37 -2 5 6 18 16 30 24 26 36 72 22 81 -6 4 -8 15
-5 26 4 11 2 19 -4 19 -17 0 -11 60 10 108 11 23 26 42 34 42 8 0 29 13 47 28
18 16 48 37 65 47 18 11 39 33 47 50 8 17 24 39 35 49 11 10 18 23 15 28 -9
13 46 60 70 60 127 -1 309 -27 354 -51 31 -15 89 -19 158 -11 73 9 164 -4 235
-34 63 -26 177 -175 194 -253 14 -61 27 -93 38 -93 7 0 27 16 46 35 31 33 35
34 52 19 11 -10 19 -12 24 -5 3 6 17 8 30 5 12 -3 26 -1 29 5 4 7 -1 11 -12
11 -11 0 -22 8 -25 18 -4 9 -15 28 -26 42 -21 27 -36 100 -20 100 5 0 9 -7 9
-15 0 -16 16 -20 24 -6 3 5 -1 14 -9 21 -11 9 -15 32 -15 79 0 36 -5 73 -11
81 -9 12 -10 10 -6 -9 3 -13 1 -35 -5 -50 l-10 -26 -11 23 c-5 12 -16 22 -24
22 -7 0 -13 5 -13 10 0 6 5 10 10 10 6 0 10 21 10 48 0 53 -63 230 -101 283
l-23 32 27 -7 c44 -11 31 10 -20 32 -27 11 -54 30 -61 41 -10 17 -22 21 -67
21 -42 0 -55 3 -55 15 0 10 -11 15 -32 16 -18 0 -52 2 -76 5 l-43 4 7 -35 c5
-29 2 -38 -17 -55 -13 -10 -34 -19 -46 -20 -13 0 -23 -6 -23 -14 0 -23 -17
-28 -35 -9 -11 10 -15 27 -12 46 4 33 -5 48 -81 125 -33 34 -41 49 -36 66 6
17 4 19 -7 10 -8 -7 -23 -8 -34 -4 -11 4 -25 5 -31 3 -6 -2 -14 8 -16 22 -4
19 -2 23 5 16 16 -16 27 -13 27 5 0 22 -29 43 -58 44 -30 0 -62 17 -62 33 0
13 -39 15 -161 7z m166 -60 c-3 -5 -14 -10 -23 -9 -14 0 -13 2 3 9 27 11 27
11 20 0z m810 -492 c4 -10 11 -18 16 -18 14 0 11 -27 -5 -33 -8 -3 -16 2 -19
15 -8 29 -27 12 -27 -25 0 -17 -4 -27 -8 -21 -16 18 -30 80 -30 128 l0 50 34
-40 c18 -21 36 -47 39 -56z m74 -370 c12 -33 4 -40 -25 -22 -21 14 -24 14 -24
1 0 -8 7 -20 15 -27 17 -14 20 -30 5 -30 -5 0 -16 13 -25 30 -13 24 -13 33 -3
50 17 27 47 25 57 -2z"/>
<path d="M2450 3291 c0 -5 7 -11 15 -15 9 -3 15 0 15 9 0 8 -7 15 -15 15 -8 0
-15 -4 -15 -9z"/>
<path d="M2570 3161 c0 -6 5 -13 10 -16 6 -3 10 1 10 9 0 9 -4 16 -10 16 -5 0
-10 -4 -10 -9z"/>
<path d="M2631 2433 c0 -4 4 -17 9 -28 8 -19 9 -19 9 2 1 12 -3 25 -9 28 -5 3
-10 3 -9 -2z"/>
<path d="M1740 2285 c-30 -8 -66 -14 -80 -14 -41 2 -43 1 -85 -36 -22 -20 -58
-45 -81 -56 -65 -33 -99 -118 -74 -184 13 -35 114 -81 217 -100 45 -7 100 -19
122 -25 53 -14 105 0 132 34 23 30 49 35 43 9 -4 -15 2 -18 39 -18 l44 0 -4
45 c-7 82 -23 134 -69 225 -64 127 -98 147 -204 120z m45 -190 c78 -46 66 -65
-49 -80 -55 -6 -58 -6 -51 12 5 10 10 35 13 56 5 46 24 48 87 12z m-100 -13
c0 -18 -20 -15 -23 4 -3 10 1 15 10 12 7 -3 13 -10 13 -16z m-65 -12 c0 -5 -5
-10 -11 -10 -5 0 -7 5 -4 10 3 6 8 10 11 10 2 0 4 -4 4 -10z"/>
<path d="M2280 2232 c-9 -4 -34 -20 -55 -37 -88 -67 -113 -117 -95 -187 15
-57 62 -129 97 -150 69 -40 243 -29 291 19 23 23 24 30 19 101 -7 118 -51 194
-132 234 -36 18 -104 29 -125 20z m-19 -199 l2 -28 4 28 c6 36 19 34 27 -4 5
-27 9 -30 38 -27 27 2 32 7 30 25 -2 12 2 24 9 28 15 10 90 -16 86 -29 -11
-36 -133 -58 -206 -37 -34 9 -48 35 -32 55 21 25 41 19 42 -11z m89 1 c0 -9
-5 -14 -12 -12 -18 6 -21 28 -4 28 9 0 16 -7 16 -16z"/>
<path d="M736 2018 c4 -18 8 -96 9 -173 1 -135 15 -215 36 -215 5 0 6 18 2 42
-3 23 -6 61 -5 83 0 22 1 73 2 113 2 91 19 104 63 49 16 -21 36 -37 44 -37 9
0 12 -6 8 -19 -3 -10 -1 -30 4 -44 10 -24 5 -54 -24 -143 -5 -18 -2 -22 24
-27 17 -4 40 -16 51 -27 36 -36 63 -16 35 27 -22 32 -21 92 1 138 15 33 15 37
0 70 -18 38 -31 47 -23 15 3 -11 2 -20 -2 -20 -3 0 -49 45 -101 100 -100 107
-139 128 -124 68z"/>
<path d="M1867 1801 c-4 -17 -3 -21 5 -13 5 5 8 16 6 23 -3 8 -7 3 -11 -10z"/>
<path d="M1986 1759 c-12 -20 -37 -39 -71 -54 -54 -24 -95 -72 -95 -112 0 -20
46 -71 55 -61 3 3 -2 18 -11 34 -15 26 -15 32 -1 66 20 47 49 64 72 42 15 -15
18 -15 40 6 23 22 41 76 33 100 -2 6 -12 -3 -22 -21z"/>
<path d="M835 1560 c-9 -14 4 -52 24 -70 33 -32 89 -60 117 -60 25 1 23 3 -20
20 -60 23 -96 56 -96 86 0 25 -15 40 -25 24z"/>
<path d="M1917 1563 c-11 -10 130 -84 147 -77 25 10 19 20 -31 53 -43 29 -100
41 -116 24z"/>
<path d="M1041 1498 c-1 -26 -5 -49 -10 -53 -9 -5 -5 -20 35 -125 15 -41 17
-30 14 75 -1 43 -9 86 -20 110 l-18 40 -1 -47z"/>
<path d="M2450 1501 c38 -72 -41 -142 -108 -95 -12 8 -22 22 -22 30 0 8 -4 14
-10 14 -5 0 -10 -17 -10 -38 0 -49 -16 -58 -143 -81 -81 -15 -117 -17 -177 -9
-41 4 -113 12 -159 17 -56 6 -92 15 -110 28 -14 11 -48 22 -74 25 -28 3 -57
14 -70 26 -12 11 -39 23 -60 26 -24 5 -43 16 -53 31 -18 28 -42 33 -50 10 -8
-20 43 -169 65 -189 11 -10 35 -16 62 -16 49 0 89 -22 89 -48 0 -9 4 -23 9
-31 8 -12 12 -13 26 -1 13 11 20 9 43 -12 94 -88 326 -134 478 -94 113 29 146
49 186 113 57 89 128 235 128 264 0 27 -16 49 -37 49 -10 0 -11 -5 -3 -19z"/>
<path d="M1101 1103 c0 -10 4 -27 9 -38 7 -17 9 -15 9 12 1 17 -3 35 -9 38 -5
3 -10 -2 -9 -12z"/>
<path d="M1150 1090 c1 -45 29 -180 45 -213 10 -21 41 -57 68 -80 28 -23 106
-93 174 -156 68 -62 127 -111 130 -107 9 9 -17 62 -42 86 -27 25 -23 50 3 27
10 -8 30 -17 45 -21 27 -6 26 -5 -15 38 -24 24 -70 78 -103 120 -33 41 -65 75
-72 76 -17 0 -33 33 -33 70 0 28 -6 34 -52 55 -30 14 -62 22 -74 19 -23 -6
-36 7 -41 39 -4 25 -33 66 -33 47z"/>
<path d="M1047 899 c-26 -17 -54 -41 -62 -53 -31 -43 -129 -137 -176 -167 -46
-29 -54 -31 -117 -26 -37 2 -104 10 -148 17 -58 8 -116 9 -204 2 -67 -5 -141
-5 -164 -1 -22 5 -71 8 -108 9 l-68 0 0 -340 0 -340 565 0 c341 0 565 4 565 9
0 5 6 16 13 23 6 8 17 23 23 33 6 11 19 22 28 23 22 5 62 -32 70 -64 6 -22 12
-24 62 -24 52 0 55 1 43 17 -8 10 -18 21 -24 25 -6 5 -5 8 3 8 7 0 23 -11 36
-25 23 -25 24 -25 210 -25 169 0 187 2 192 18 3 9 10 25 15 34 5 10 9 31 9 48
0 17 5 39 12 50 9 13 9 27 2 47 -11 33 -29 33 -30 -1 -1 -13 -8 -33 -16 -45
-13 -19 -17 -20 -28 -6 -10 12 -9 18 5 31 12 13 13 19 4 24 -6 4 -8 13 -4 20
5 8 3 11 -6 8 -8 -3 -14 -9 -15 -14 -3 -35 -34 -58 -48 -35 -7 11 36 61 52 61
7 0 24 7 38 16 l25 17 -83 37 c-122 54 -212 84 -216 71 -6 -18 -22 -12 -22 8
0 10 -11 26 -25 35 -13 9 -38 28 -54 44 -16 15 -46 41 -66 57 -74 61 -126 122
-157 185 -17 36 -40 74 -51 84 -16 16 -19 28 -14 78 6 69 0 71 -66 27z m474
-562 c-10 -9 -11 -8 -5 6 3 10 9 15 12 12 3 -3 0 -11 -7 -18z m59 -22 c-12
-32 2 -39 32 -15 23 17 28 18 64 4 21 -8 47 -17 57 -21 28 -9 19 -23 -15 -23
-18 -1 -50 -7 -70 -14 -20 -7 -42 -10 -49 -5 -7 4 -18 5 -24 1 -5 -3 -25 -7
-42 -8 -30 -1 -33 2 -33 28 0 15 5 27 11 26 6 -2 14 3 16 10 3 6 -1 12 -9 12
-10 0 -9 3 2 10 20 13 33 13 25 0 -3 -5 1 -10 10 -10 11 0 15 5 11 15 -3 9 0
15 9 15 11 0 12 -6 5 -25z m-80 5 c0 -5 -4 -10 -10 -10 -5 0 -10 5 -10 10 0 6
5 10 10 10 6 0 10 -4 10 -10z m170 -130 c0 -19 -11 -26 -23 -14 -8 8 3 34 14
34 5 0 9 -9 9 -20z m-319 -23 c-1 -12 -15 -9 -19 4 -3 6 1 10 8 8 6 -3 11 -8
11 -12z m90 -61 c12 -6 29 -21 37 -34 13 -20 13 -22 -6 -22 -14 0 -22 8 -24
22 -3 21 -4 21 -21 4 -17 -18 -18 -17 -13 9 4 24 3 26 -18 21 -20 -5 -23 -3
-18 20 4 24 5 24 23 8 11 -10 29 -22 40 -28z m75 -85 c-12 -19 -24 -12 -19 10
4 13 9 17 15 11 6 -6 7 -15 4 -21z"/>
<path d="M1625 270 c-3 -5 -2 -10 4 -10 5 0 13 5 16 10 3 6 2 10 -4 10 -5 0
-13 -4 -16 -10z"/>
<path d="M1550 848 c0 -10 6 -32 14 -50 72 -166 76 -171 161 -188 48 -10 84
-10 177 0 113 12 160 30 80 30 -21 0 -46 6 -57 14 -11 7 -46 16 -77 20 -43 6
-69 17 -111 47 -31 21 -62 39 -69 39 -20 0 -78 45 -100 77 -13 20 -18 23 -18
11z"/>
<path d="M2224 604 c-4 -16 -2 -41 5 -58 7 -17 20 -53 28 -81 19 -58 11 -108
-37 -262 -16 -50 -33 -117 -38 -147 l-9 -56 124 0 c124 0 128 1 124 38 -1 6 3
12 8 12 11 0 -5 56 -22 78 -5 7 -7 16 -3 19 4 4 11 1 16 -6 13 -22 17 26 7 74
-5 22 -10 49 -12 60 -1 11 -3 20 -4 20 -1 0 -4 19 -7 42 -6 64 -88 221 -134
261 l-39 34 -7 -28z"/>
<path d="M1290 613 c0 -6 8 -17 18 -24 16 -13 16 -13 2 6 -8 11 -16 22 -17 24
-2 2 -3 0 -3 -6z"/>
<path d="M1950 246 c0 -2 15 -20 34 -40 31 -34 46 -69 61 -140 5 -23 8 -27 16
-15 33 52 -34 199 -91 199 -11 0 -20 -2 -20 -4z"/>
<path d="M1865 200 c-8 -16 -15 -35 -15 -42 0 -7 -7 -25 -14 -40 -8 -16 -18
-48 -22 -73 l-6 -45 73 1 c73 1 73 2 32 12 -24 5 -43 13 -43 17 0 4 10 20 22
36 12 15 23 35 25 43 1 9 10 21 19 28 15 11 13 15 -24 31 -41 19 -46 32 -11
32 12 0 16 5 13 15 -10 24 -32 17 -49 -15z"/>
</g>
</svg>
